<svg xmlns="http://www.w3.org/2000/svg" width="170.7" height="123.3" viewBox="0 0 170.7 123.3">
  <path id="Tracé_83" data-name="Tracé 83" d="M53.4,193.5c22.5,0,38.7-15.3,38.7-34.5,0-19.5-16.2-34.5-36.9-34.5-5.1,0-7.8,1.2-9.3,2.7,5.1-15.3,16.5-26.7,32.7-36.9L65.4,70.2c-37.5,20.1-54,54.9-54,79.2C11.4,172.5,27,193.5,53.4,193.5Zm90-.3c22.5,0,38.7-15,38.7-34.2,0-19.5-16.2-34.5-36.6-34.5-5.4,0-8.1.9-9.6,2.7,5.1-15.3,16.8-26.7,33-36.9L155.7,70.2c-37.8,20.1-54.3,54.9-54.3,79.2C101.4,172.5,117,193.2,143.4,193.2Z" transform="translate(-11.4 -70.2)" fill="#e83f40"/>
</svg>
