<svg xmlns="http://www.w3.org/2000/svg" width="65.668" height="92.644" viewBox="0 0 65.668 92.644">
  <g id="Groupe_33" data-name="Groupe 33" transform="translate(-386.767 -59.793)">
    <g id="Groupe_31" data-name="Groupe 31" transform="translate(400.438 59.793)">
      <path id="Tracé_58" data-name="Tracé 58" d="M433.635,72.632a7.629,7.629,0,0,0-5.628-.266c-.134.044-.263.095-.393.146l1.219-2.2a7.656,7.656,0,0,0,3.543-9.491l-.395-1.031-1,.459a7.657,7.657,0,0,0-4.1,9.315l-.958,1.729-.022-.1a7.642,7.642,0,0,0-3.2-4.636l-.919-.614-.556.956a7.652,7.652,0,0,0,1.656,9.668,18.784,18.784,0,0,1-2.387,2.8c.017-.08.036-.159.051-.239a7.65,7.65,0,0,0-1.107-5.525l-.6-.927-.888.656a7.657,7.657,0,0,0-2.353,9.444,18.913,18.913,0,0,1-3.831,1.356c.137-.139.268-.285.395-.437a7.64,7.64,0,0,0,1.741-5.36l-.068-1.1-1.1.139a7.654,7.654,0,0,0-6.684,7.22,18.886,18.886,0,0,1-3.28-.531V86.2a20.5,20.5,0,0,0,3.535.5,7.647,7.647,0,0,0,8.564,5.284l1.09-.181-.249-1.075a7.628,7.628,0,0,0-3.2-4.631,21.113,21.113,0,0,0,4.157-1.529l.01.017.092-.068a.051.051,0,0,0,.02-.009,7.62,7.62,0,0,0,4.782,2.185c.2.015.4.022.6.022a7.621,7.621,0,0,0,4.785-1.685l.86-.69-.743-.817a7.635,7.635,0,0,0-5.065-2.473c-.083-.008-.168-.01-.254-.015a20.756,20.756,0,0,0,2.9-3.39,7.611,7.611,0,0,0,2.7.5,7.676,7.676,0,0,0,6.769-4.073l.517-.977Zm-4.64-7.528a5.568,5.568,0,0,1,1.763-2.314,5.586,5.586,0,0,1-.363,2.884,5.692,5.692,0,0,1-.731,1.281,5.538,5.538,0,0,1-1.03,1.034A5.561,5.561,0,0,1,428.994,65.1ZM408.187,84.061a5.588,5.588,0,0,1,3.577-4.328,5.6,5.6,0,0,1-3.577,4.328ZM413.266,90a5.592,5.592,0,0,1-4.668-3.119A5.595,5.595,0,0,1,413.266,90ZM418.5,78.765a5.589,5.589,0,0,1-1.244,2.626,5.595,5.595,0,0,1,1-5.525A5.573,5.573,0,0,1,418.5,78.765Zm3.35,4.345a5.573,5.573,0,0,1,2.741.971,5.593,5.593,0,0,1-5.6-.434A5.558,5.558,0,0,1,421.849,83.11Zm1.927-8.54a5.593,5.593,0,0,1-1.268-5.47,5.589,5.589,0,0,1,1.268,5.47Zm5.389,1.188a5.544,5.544,0,0,1-2.9.192,5.608,5.608,0,0,1,5.313-1.816A5.517,5.517,0,0,1,429.165,75.758Z" transform="translate(-402.768 -59.793)" fill="#f4eceb"/>
      <path id="Tracé_59" data-name="Tracé 59" d="M435.81,113.134v3.83h-5.25v2.075h2.007v1.878h-3.058l-1.573,4.631a2.2,2.2,0,0,1-3.221,1.173l-4.577-2.7-4.3-2.536v-.105a17.959,17.959,0,0,1,6.972-14.068,12.835,12.835,0,0,0,4.882-10.1,5.54,5.54,0,0,1,5.15-5.521c.126-.007.255-.015.383-.015h5.254V89.6h-5.254c-.183,0-.363.01-.544.022a9.56,9.56,0,0,0-8.057,5.553,10.857,10.857,0,0,1-9.822,6.281h-5.713v.009a6.683,6.683,0,0,0-.607,13.286,9.411,9.411,0,0,0,4.043,7.184l1.251.739a14.784,14.784,0,0,0,6.365,11.607v-2.631a12.693,12.693,0,0,1-4.16-7.679l4.16,2.453,3.516,2.075a4.274,4.274,0,0,0,6.246-2.287l1.1-3.226h3.643v-3.951h3.246v-3.833h3.209v-2.073Zm-30.969-4.99a4.615,4.615,0,0,1,4.611-4.611h3.6a12.72,12.72,0,0,0-4.572,9.115A4.615,4.615,0,0,1,404.841,108.144Zm8.83,12.068a7.336,7.336,0,0,1-3.136-6.016v-.88a10.68,10.68,0,0,1,7.772-10.264,12.722,12.722,0,0,0,2.892-1.232,12.881,12.881,0,0,0,4.407-4.163,10.77,10.77,0,0,1-4.087,8.033,20.081,20.081,0,0,0-7.723,14.595Z" transform="translate(-402.768 -64.134)" fill="#f4eceb"/>
      <path id="Tracé_60" data-name="Tracé 60" d="M435.526,104.321v2.074h2.328a2.958,2.958,0,0,0,2.778,1.945v-2.96h0v-1.059Z" transform="translate(-407.538 -66.277)" fill="#f4eceb"/>
      <path id="Tracé_61" data-name="Tracé 61" d="M443.413,103.388l-1.467,1.467-4.236-4.238h-2.49V98.543h3.348Z" transform="translate(-407.493 -65.435)" fill="#f4eceb"/>
    </g>
    <g id="Groupe_32" data-name="Groupe 32" transform="translate(386.767 138.754)">
      <path id="Tracé_62" data-name="Tracé 62" d="M405.689,152.211v13.683h-3.968v-8.738l-5.454,6.686h-.2l-5.454-6.686v8.738h-3.852V152.211h4.36l5.141,6.568,5.18-6.568Z" transform="translate(-386.767 -152.211)" fill="#f4eceb"/>
      <path id="Tracé_63" data-name="Tracé 63" d="M415.384,165.894V152.211h3.987v13.683Z" transform="translate(-390.934 -152.211)" fill="#f4eceb"/>
      <path id="Tracé_64" data-name="Tracé 64" d="M435.945,152.211a24.367,24.367,0,0,1-4.009,5.861,24.346,24.346,0,0,1-4.01-5.861H423.52a26.139,26.139,0,0,0,6.423,9.068v4.614h3.987v-4.614a26.148,26.148,0,0,0,6.422-9.068Z" transform="translate(-392.119 -152.211)" fill="#f4eceb"/>
      <path id="Tracé_65" data-name="Tracé 65" d="M454.94,163.274h-7.507l-1.29,2.62H441.96l7.076-13.683H453.4l7.076,13.683H456.23Zm-1.388-2.834-2.365-4.848L448.8,160.44Z" transform="translate(-394.804 -152.211)" fill="#f4eceb"/>
    </g>
  </g>
</svg>
