<svg xmlns="http://www.w3.org/2000/svg" width="118.672" height="49.038" viewBox="0 0 118.672 49.038">
  <g id="Groupe_13" data-name="Groupe 13" transform="translate(-82.396 -236.075)">
    <g id="Groupe_11" data-name="Groupe 11">
      <path id="Tracé_28" data-name="Tracé 28" d="M103.973,245.05a5.328,5.328,0,0,0-3.934-.186c-.094.031-.184.066-.274.1l.852-1.536a5.353,5.353,0,0,0,2.477-6.634l-.277-.721-.7.321a5.352,5.352,0,0,0-2.865,6.511l-.67,1.209-.016-.07a5.335,5.335,0,0,0-2.238-3.241l-.642-.429-.389.668a5.349,5.349,0,0,0,1.157,6.759,13.144,13.144,0,0,1-1.668,1.958c.012-.056.025-.111.035-.167a5.342,5.342,0,0,0-.773-3.862l-.42-.648-.62.458a5.352,5.352,0,0,0-1.645,6.6,13.22,13.22,0,0,1-2.678.948c.1-.1.187-.2.276-.3a5.346,5.346,0,0,0,1.217-3.747l-.048-.77-.767.1a5.352,5.352,0,0,0-4.672,5.047,13.2,13.2,0,0,1-2.293-.371v1.489a14.184,14.184,0,0,0,2.472.346,5.352,5.352,0,0,0,5.1,3.768,5.252,5.252,0,0,0,.883-.074l.762-.126-.174-.752a5.335,5.335,0,0,0-2.237-3.237,14.855,14.855,0,0,0,2.907-1.068l.006.012.065-.048.014-.007a5.328,5.328,0,0,0,3.343,1.527c.141.011.281.016.421.016a5.326,5.326,0,0,0,3.344-1.178l.6-.483-.52-.571a5.34,5.34,0,0,0-3.541-1.728c-.058-.005-.117-.007-.177-.01a14.557,14.557,0,0,0,2.029-2.37,5.351,5.351,0,0,0,6.617-2.5l.361-.683Zm-3.244-5.262a3.9,3.9,0,0,1,1.233-1.618,3.905,3.905,0,0,1-.254,2.017,3.951,3.951,0,0,1-.512.894,3.846,3.846,0,0,1-.719.723A3.889,3.889,0,0,1,100.729,239.788ZM86.184,253.039a3.9,3.9,0,0,1,2.5-3.025,3.913,3.913,0,0,1-2.5,3.025Zm3.551,4.149a3.909,3.909,0,0,1-3.263-2.18,3.909,3.909,0,0,1,3.263,2.18Zm3.658-7.851a3.9,3.9,0,0,1-.87,1.836,3.913,3.913,0,0,1,.7-3.863A3.9,3.9,0,0,1,93.393,249.337Zm2.342,3.037a3.905,3.905,0,0,1,1.916.679,3.909,3.909,0,0,1-3.914-.3A3.889,3.889,0,0,1,95.735,252.374Zm1.346-5.969a3.914,3.914,0,0,1-.886-3.824,3.907,3.907,0,0,1,.886,3.824Zm3.768.83a3.886,3.886,0,0,1-2.029.135,3.919,3.919,0,0,1,3.714-1.27A3.857,3.857,0,0,1,100.849,247.235Z" fill="#005461"/>
      <path id="Tracé_29" data-name="Tracé 29" d="M105.494,270.327v2.678h-3.67v1.451h1.4v1.312h-2.138l-1.1,3.237a1.538,1.538,0,0,1-2.252.82l-3.2-1.885-3.007-1.773v-.073A12.556,12.556,0,0,1,96.4,266.26a8.972,8.972,0,0,0,3.412-7.06,3.875,3.875,0,0,1,3.6-3.86c.089,0,.179-.01.268-.01h3.674v-1.45h-3.674c-.128,0-.254.006-.38.015a6.683,6.683,0,0,0-5.632,3.881,7.589,7.589,0,0,1-6.866,4.391H86.813v.007a4.672,4.672,0,0,0-.424,9.287,6.574,6.574,0,0,0,2.826,5.021l.874.517a10.337,10.337,0,0,0,4.449,8.114v-1.839a8.878,8.878,0,0,1-2.908-5.368l2.908,1.715L97,281.071a2.987,2.987,0,0,0,4.366-1.6l.767-2.255h2.546v-2.761h2.269v-2.68h2.244v-1.449ZM83.845,266.84a3.227,3.227,0,0,1,3.224-3.224h2.517a8.893,8.893,0,0,0-3.2,6.372A3.226,3.226,0,0,1,83.845,266.84Zm6.173,8.436a5.13,5.13,0,0,1-2.192-4.206v-.615a7.467,7.467,0,0,1,5.432-7.175,8.916,8.916,0,0,0,2.022-.86,9.013,9.013,0,0,0,3.08-2.91,7.525,7.525,0,0,1-2.857,5.615,14.035,14.035,0,0,0-5.4,10.2Z" fill="#005461"/>
      <path id="Tracé_30" data-name="Tracé 30" d="M101.961,262.669v1.449h1.628a2.066,2.066,0,0,0,1.941,1.36v-2.069h0v-.74Z" fill="#005461"/>
      <path id="Tracé_31" data-name="Tracé 31" d="M107.505,262.6l-1.025,1.025-2.961-2.963h-1.74v-1.449h2.34Z" fill="#005461"/>
    </g>
    <g id="Groupe_12" data-name="Groupe 12">
      <path id="Tracé_32" data-name="Tracé 32" d="M146.356,254.561v16.016h-4.644V260.35l-6.384,7.824H135.1l-6.384-7.824v10.227h-4.507V254.561h5.1l6.017,7.688,6.063-7.688Z" fill="#005461"/>
      <path id="Tracé_33" data-name="Tracé 33" d="M152.826,270.577V254.561h4.667v16.016Z" fill="#005461"/>
      <path id="Tracé_34" data-name="Tracé 34" d="M175.505,254.562a28.471,28.471,0,0,1-4.693,6.859,28.5,28.5,0,0,1-4.692-6.859h-5.158a30.614,30.614,0,0,0,7.517,10.614v5.4h4.666v-5.4a30.588,30.588,0,0,0,7.517-10.614Z" fill="#005461"/>
      <path id="Tracé_35" data-name="Tracé 35" d="M194.593,267.511h-8.785l-1.51,3.066h-4.9l8.282-16.016h5.1l8.282,16.016H196.1Zm-1.624-3.318-2.768-5.674-2.792,5.674Z" fill="#005461"/>
    </g>
  </g>
</svg>
