<svg xmlns="http://www.w3.org/2000/svg" width="128" height="51.691" viewBox="0 0 128 51.691">
  <g id="Groupe_72" data-name="Groupe 72" transform="translate(0 -5175)">
    <path id="Tracé_26" data-name="Tracé 26" d="M1557.52-628.513h-16.1v-17.345A97.356,97.356,0,0,1,1517.9-679.18l-.434-1.024H1535.2l.206.4c4.672,9,9.4,15.99,14.062,20.8,4.659-4.806,9.389-11.8,14.062-20.8l.206-.4h17.732l-.434,1.024a97.385,97.385,0,0,1-23.513,33.322Zm-14.632-1.475h13.157v-16.519l.24-.22a95.893,95.893,0,0,0,22.95-32h-14.6c-4.85,9.275-9.776,16.438-14.643,21.295l-.521.52-.521-.52c-4.867-4.859-9.792-12.022-14.64-21.295H1519.7a95.888,95.888,0,0,0,22.951,32l.239.22Z" transform="translate(-1517.467 5855.204)"/>
    <path id="Tracé_70" data-name="Tracé 70" d="M1557.52-680.2h-16.1v17.345a97.358,97.358,0,0,0-23.515,33.322l-.434,1.024H1535.2l.206-.4c4.672-9,9.4-15.99,14.061-20.8,4.659,4.806,9.389,11.8,14.062,20.8l.206.4h17.732l-.434-1.024a97.385,97.385,0,0,0-23.513-33.322Zm-14.632,1.475h13.157v16.519l.24.22a95.893,95.893,0,0,1,22.95,32h-14.6c-4.85-9.275-9.776-16.438-14.643-21.295l-.521-.52-.521.52c-4.867,4.859-9.792,12.022-14.64,21.295H1519.7a95.89,95.89,0,0,1,22.951-32l.239-.22Z" transform="translate(-1453.467 5855.204)"/>
  </g>
</svg>
