<svg xmlns="http://www.w3.org/2000/svg" xmlns:xlink="http://www.w3.org/1999/xlink" width="1680" height="945" viewBox="0 0 1680 945">
  <defs>
    <clipPath id="clip-path">
      <rect id="Rectangle_72" data-name="Rectangle 72" width="1680" height="945" transform="translate(1680 4711) rotate(180)" fill="#005461"/>
    </clipPath>
  </defs>
  <g id="Groupe_de_masques_2" data-name="Groupe de masques 2" transform="translate(0 -3766)" opacity="0.25" clip-path="url(#clip-path)">
    <g id="Groupe_30" data-name="Groupe 30" transform="translate(-33.714 2304.501)">
      <path id="Tracé_54" data-name="Tracé 54" d="M3019.277,1225.851a409.116,409.116,0,0,0-300.07-14.075c-7.143,2.326-14.034,5.028-20.925,7.749l65.013-116.416a404.481,404.481,0,0,0,188.9-502.8l-21.056-54.658-53.572,24.291a404.755,404.755,0,0,0-218.55,493.524l-51.087,91.582c-.4-1.8-.779-3.477-1.178-5.3-23.521-100.756-84.114-187.958-170.711-245.59l-49-32.546-29.652,50.639a403.677,403.677,0,0,0,88.282,512.247,992.046,992.046,0,0,1-127.292,148.439c.905-4.254,1.957-8.4,2.738-12.651a403.033,403.033,0,0,0-59.031-292.751l-31.973-49.107-47.334,34.763a404.088,404.088,0,0,0-125.46,500.37,1013.574,1013.574,0,0,1-204.26,71.814c7.29-7.353,14.309-15.1,21.073-23.122,66.3-79.833,99.328-180.606,92.817-283.956l-3.625-58.407-58.506,7.371a407.029,407.029,0,0,0-263.29,143.917,402.291,402.291,0,0,0-93.09,238.615,1011.616,1011.616,0,0,1-174.861-28.149v112.9a1098.315,1098.315,0,0,0,188.518,26.239c27.567,88.754,84.511,164.963,162.912,217.045a409.047,409.047,0,0,0,293.7,62.911l58.105-9.569-13.256-56.965c-23.538-100.773-84.112-187.851-170.581-245.338a1131.4,1131.4,0,0,0,221.669-81l.524.9,4.952-3.622a4.209,4.209,0,0,0,1.034-.5,407.616,407.616,0,0,0,254.948,115.749c10.789.774,21.453,1.172,32.117,1.172a407.766,407.766,0,0,0,255.091-89.277l45.884-36.565-39.644-43.286a408.083,408.083,0,0,0-270.036-130.994c-4.424-.378-8.976-.523-13.53-.775A1101.609,1101.609,0,0,0,2540.7,1491.084a407.048,407.048,0,0,0,276.022,4.4c98.674-33.591,179.941-102.323,228.688-193.8l27.565-51.811Zm-247.4-398.823a295.067,295.067,0,0,1,94-122.6A294.176,294.176,0,0,1,2846.5,857.267a299.709,299.709,0,0,1-39.008,67.831,292.5,292.5,0,0,1-54.861,54.766A292.617,292.617,0,0,1,2771.874,827.028Zm-1109.4,1004.347a296.348,296.348,0,0,1,190.73-229.318,293.38,293.38,0,0,1-64.363,140.185A298.179,298.179,0,0,1,1662.476,1831.375Zm270.817,314.466a298.329,298.329,0,0,1-248.855-165.252,298.335,298.335,0,0,1,248.855,165.252Zm278.994-595.071a294.637,294.637,0,0,1-66.3,139.14,294.886,294.886,0,0,1,53.3-292.751A293.187,293.187,0,0,1,2212.287,1550.769Zm178.653,230.219a298.7,298.7,0,0,1,146.134,51.432,299.848,299.848,0,0,1-298.508-23A297.56,297.56,0,0,1,2390.94,1780.988Zm102.7-452.436a294.923,294.923,0,0,1-67.61-289.776,294.755,294.755,0,0,1,67.61,289.776Zm287.338,62.929a297.879,297.879,0,0,1-154.713,10.2,300.166,300.166,0,0,1,283.292-96.25A294.51,294.51,0,0,1,2780.978,1391.481Z" transform="translate(-1373.578 -545.648)" fill="none" stroke="#f4eceb" stroke-miterlimit="10" stroke-width="1"/>
      <path id="Tracé_55" data-name="Tracé 55" d="M3135.253,1867.1v202.971h-279.92v109.946h107v99.476H2799.312l-83.875,245.338a116.15,116.15,0,0,1-70.583,71.832,117.4,117.4,0,0,1-101.159-9.7l-244.031-142.888-229.342-134.347v-5.568c0-287.328,135.474-559.012,371.705-745.313,165.377-130.49,260.279-325.567,260.279-535.115a291.05,291.05,0,0,1,79.832-200.376,295.64,295.64,0,0,1,194.756-92.124c6.766-.378,13.657-.774,20.422-.774h280.174V620.529H2997.315c-9.757,0-19.37.505-29,1.154-183.71,10.849-350.25,123.768-429.554,294.175-94.142,202.178-299.689,332.793-523.7,332.793H1710.442v.524c-187.484,10.073-336.864,164.855-336.864,353.607,0,177.76,132.481,325.3,304.494,350.238a497.825,497.825,0,0,0,215.557,380.6l66.7,39.141c9.231,245.987,134.565,474.258,339.331,614.968V2848.321a671.393,671.393,0,0,1-221.8-406.824l221.8,129.968,187.484,109.946a227.9,227.9,0,0,0,195.664,18.472c65.015-23.644,115.068-74.552,137.3-139.663l58.506-170.911h194.23v-209.3H3245.9v-203.1H3417V1867.1ZM1484.1,1602.781c0-134.76,110.245-244.309,245.844-244.309h192.035C1781.045,1475.265,1688.336,1647.6,1678.2,1841.4,1567.427,1817.754,1484.1,1719.828,1484.1,1602.781Zm470.776,639.367a388.013,388.013,0,0,1-167.207-318.719v-46.639c0-258.386,175.531-476.854,414.358-543.766a697.514,697.514,0,0,0,389.129-285.776c-6.888,166.91-85.29,321.044-217.9,425.565-246.895,194.681-394.735,473.881-411.765,773.21Z" transform="translate(-1373.578 728.902)" fill="none" stroke="#f4eceb" stroke-miterlimit="10" stroke-width="1"/>
      <path id="Tracé_56" data-name="Tracé 56" d="M1455.86,657.493V767.367h124.157A157.658,157.658,0,0,0,1728.09,870.394V713.611h0V657.493Z" transform="translate(36.358 1358.066)" fill="none" stroke="#f4eceb" stroke-miterlimit="10" stroke-width="1"/>
      <path id="Tracé_57" data-name="Tracé 57" d="M1891.875,899.624l-78.2,77.71L1587.839,752.8H1455.094V642.982H1633.6Z" transform="translate(23.244 1111.078)" fill="none" stroke="#f4eceb" stroke-miterlimit="10" stroke-width="1"/>
    </g>
  </g>
</svg>
