<svg xmlns="http://www.w3.org/2000/svg" width="249.993" height="250.275" viewBox="0 0 249.993 250.275">
  <path id="Tracé_80" data-name="Tracé 80" d="M249.993,251H0V.724A252.944,252.944,0,0,0,5.1,50.585,249.739,249.739,0,0,0,19.725,97.7a251.023,251.023,0,0,0,23.142,42.636,252.8,252.8,0,0,0,30.649,37.147,252.805,252.805,0,0,0,37.147,30.649A251.023,251.023,0,0,0,153.3,231.275,249.737,249.737,0,0,0,200.415,245.9a252.853,252.853,0,0,0,49.578,5.1Z" transform="translate(0 -0.725)" fill="#f4eceb"/>
</svg>
