<svg xmlns="http://www.w3.org/2000/svg" width="250.276" height="249.993" viewBox="0 0 250.276 249.993">
  <path id="Tracé_80" data-name="Tracé 80" d="M249.993,251H0V.724A252.946,252.946,0,0,0,5.1,50.585,249.74,249.74,0,0,0,19.725,97.7a251.021,251.021,0,0,0,23.142,42.636,252.8,252.8,0,0,0,30.649,37.147,252.805,252.805,0,0,0,37.147,30.649A251.022,251.022,0,0,0,153.3,231.275,249.737,249.737,0,0,0,200.415,245.9a252.851,252.851,0,0,0,49.578,5.1Z" transform="translate(-0.724 249.993) rotate(-90)" fill="#f4eceb"/>
</svg>
